<svg width="24" height="24" viewBox="0 0 24 24" fill="none" xmlns="http://www.w3.org/2000/svg">
<path d="M23.5556 11.9999C23.5556 14.2854 22.8779 16.5195 21.6081 18.4198C20.3384 20.3201 18.5336 21.8012 16.4221 22.6758C14.3106 23.5504 11.9872 23.7793 9.74564 23.3334C7.50408 22.8875 5.44508 21.787 3.82901 20.1709C2.21293 18.5548 1.11237 16.4958 0.6665 14.2543C0.220626 12.0127 0.449465 9.68927 1.32408 7.57777C2.19869 5.46627 3.67979 3.66154 5.5801 2.3918C7.4804 1.12206 9.71455 0.444336 12 0.444336C15.0647 0.444336 18.0039 1.66179 20.171 3.82888C22.3381 5.99597 23.5556 8.93517 23.5556 11.9999ZM17.4817 10.9166H13.0834V6.51822C13.0834 6.23091 12.9692 5.95536 12.7661 5.75219C12.5629 5.54903 12.2873 5.43489 12 5.43489C11.7127 5.43489 11.4372 5.54903 11.234 5.75219C11.0308 5.95536 10.9167 6.23091 10.9167 6.51822V10.9166H6.51835C6.23103 10.9166 5.95548 11.0307 5.75232 11.2339C5.54916 11.437 5.43502 11.7126 5.43502 11.9999C5.43502 12.2872 5.54916 12.5628 5.75232 12.7659C5.95548 12.9691 6.23103 13.0832 6.51835 13.0832H10.9167V17.4816C10.9167 17.7689 11.0308 18.0444 11.234 18.2476C11.4372 18.4508 11.7127 18.5649 12 18.5649C12.2873 18.5649 12.5629 18.4508 12.7661 18.2476C12.9692 18.0444 13.0834 17.7689 13.0834 17.4816V13.0832H17.4817C17.769 13.0832 18.0446 12.9691 18.2477 12.7659C18.4509 12.5628 18.565 12.2872 18.565 11.9999C18.565 11.7126 18.4509 11.437 18.2477 11.2339C18.0446 11.0307 17.769 10.9166 17.4817 10.9166Z" fill="#8A8A8E"/>
</svg>
