<svg width="82" height="82" viewBox="0 0 82 82" fill="none" xmlns="http://www.w3.org/2000/svg">
<circle cx="41" cy="41" r="41" fill="#F5FDFF"/>
<path fill-rule="evenodd" clip-rule="evenodd" d="M46.3531 25.2422C46.0668 20.1807 40.1408 13.6603 33.0739 14.0138C22.3069 14.5568 16.6481 26.9328 22.1131 37.6735C20.9387 44.2191 21.6795 50.7812 24.2087 56.1862C26.6476 61.3985 30.5677 65.0905 34.9641 66.3158C39.375 67.5453 43.9318 66.2513 47.9236 63.79C49.0178 63.1152 50.382 63.279 51.3182 64.1973C51.5366 64.4115 52.0983 64.9744 52.6403 65.5176C53.1302 66.0086 53.604 66.4834 53.7937 66.6701C55.3859 68.2367 57.759 68.4378 59.5636 67.1746L60.4053 66.5854C61.8322 65.5866 62.3852 63.6487 61.7204 61.9776C60.8808 59.8672 58.4769 59.0511 56.6679 60.1874C53.9916 55.6613 51.4583 53.537 48.9331 53.7022C47.601 53.7889 46.5323 54.4877 45.4557 55.1916C44.1756 56.0285 42.8844 56.8728 41.126 56.7038C40.3864 56.6327 39.6531 56.3951 38.9466 55.9975C38.533 55.7644 38.0196 55.9316 37.8002 56.3708C37.5808 56.8099 37.7383 57.3546 38.152 57.5875C39.0587 58.0979 40.0079 58.4036 40.9732 58.4963C43.2851 58.7184 44.9097 57.6589 46.3219 56.7378C47.2749 56.1162 48.1313 55.5576 49.037 55.4987C50.9489 55.3748 53.2357 57.577 55.6489 61.8686C55.8868 62.2918 56.4013 62.4331 56.8028 62.1857L57.522 61.7425C57.9817 61.4592 58.5347 61.3991 59.039 61.5782C60.4969 62.0955 60.7624 64.1794 59.4716 65.083L58.6299 65.6722C57.4754 66.4805 55.9608 66.348 54.9467 65.3503C54.7623 65.1688 54.2979 64.7034 53.8133 64.2177C53.2665 63.6697 52.694 63.096 52.4692 62.8755C50.9827 61.4177 48.8139 61.1597 47.0718 62.2337C44.2205 63.9919 39.8799 65.8254 35.395 64.5751C31.4724 63.4819 27.9488 60.1325 25.7277 55.3858C23.323 50.2467 22.6511 43.9668 23.8359 37.7029C23.8758 37.4918 23.8432 37.2726 23.7438 37.0849C18.6486 27.4592 23.5446 16.2964 33.1543 15.8118C39.396 15.4986 44.4357 21.3813 44.6601 25.3502C44.8084 27.9731 44.4704 28.9245 44.1434 29.8446L44.1433 29.8449C43.7544 30.9394 43.3523 32.0713 43.6963 35.1602C43.8799 36.8087 43.3704 38.4059 42.2984 39.5425C39.6062 42.3973 35.2482 41.0614 35.2046 41.0473C34.7559 40.9054 34.2835 41.1764 34.1496 41.6525C34.0158 42.1289 34.271 42.63 34.7198 42.7721C34.9378 42.8412 40.0976 44.4206 43.497 40.8157C44.939 39.287 45.6255 37.1486 45.3806 34.9489C45.085 32.2953 45.384 31.4539 45.7303 30.4795L45.7304 30.4792C46.1019 29.4335 46.523 28.2482 46.3531 25.2422ZM32.3044 35.829C32.4885 35.3526 32.3183 34.7859 31.9241 34.5633C30.5428 33.7833 30.0177 31.8525 30.3378 30.9315C30.5077 30.4421 30.9723 30.3651 31.7186 30.7028C32.1259 30.8871 32.5799 30.6372 32.7325 30.1447C32.8849 29.6522 32.6782 29.1036 32.2707 28.9192C30.3957 28.0712 29.2923 29.0217 28.8851 30.1942C28.2332 32.0707 29.1092 35.0756 31.2573 36.2887C31.6515 36.5112 32.1203 36.3053 32.3044 35.829ZM39.1739 29.9792V31.1019C39.1739 31.5979 38.8673 32 38.4891 32C38.111 32 37.8043 31.5979 37.8043 31.1019V29.9792C37.8043 29.4832 38.111 29.0811 38.4891 29.0811C38.8673 29.0811 39.1739 29.4832 39.1739 29.9792ZM52.5887 46.1454C52.5713 45.3151 52.5575 44.6516 52.9875 44.2076C53.6051 43.5697 54.6598 43.628 55.8229 43.6922C57.279 43.7727 58.9049 43.8625 60.0553 42.6076C60.8796 41.7083 61.2125 40.3705 61.0448 38.6316C60.998 38.1469 60.5823 37.794 60.1182 37.8423C59.6532 37.891 59.3141 38.3233 59.3608 38.8079C59.4768 40.0111 59.2987 40.8795 58.8315 41.3892C58.2187 42.0576 57.1516 41.9987 55.9721 41.9336C54.5421 41.8546 52.947 41.7665 51.7964 42.9547C50.8599 43.9219 50.8781 45.0062 50.8969 46.1269C50.9098 46.8955 50.923 47.6811 50.6286 48.4578C49.9491 50.2507 47.865 51.5941 44.43 52.4566C44.3207 52.1051 44.2039 51.7563 44.0805 51.4107C44.6353 51.1628 45.1825 50.8863 45.7201 50.5797C47.8007 49.393 47.803 46.2629 45.7198 45.068C44.9859 44.647 44.1117 44.5652 43.321 44.8435C39.5182 46.1825 35.2996 45.81 31.7468 43.8216C31.3351 43.5912 30.822 43.7522 30.6009 44.1813C30.3797 44.6105 30.5343 45.1451 30.9461 45.3755C34.9099 47.5938 39.6179 48.0091 43.8627 46.5145C44.21 46.3922 44.5796 46.4273 44.9036 46.6132C45.8223 47.1402 45.8162 48.5142 44.9076 49.0325C41.5137 50.9682 37.9508 51.6025 34.1947 50.9639C33.733 50.8853 33.2985 51.2116 33.2233 51.6922C33.1479 52.173 33.4609 52.6263 33.9221 52.7046C36.8192 53.1971 39.7295 52.9679 42.4965 52.0319C42.7814 52.8307 42.9018 53.2601 42.9761 53.5249C43.0439 53.7667 43.0732 53.8711 43.1541 53.9942C43.3447 54.2841 43.6878 54.4339 44.0258 54.3594C48.5647 53.3658 51.2394 51.6472 52.2026 49.1057C52.6271 47.9857 52.6061 46.981 52.5887 46.1454Z" fill="#008CA3"/>
</svg>
