<svg width="48" height="48" viewBox="0 0 48 48" fill="none" xmlns="http://www.w3.org/2000/svg">
<circle cx="24" cy="24" r="24" fill="#F5FDFF"/>
<path fill-rule="evenodd" clip-rule="evenodd" d="M35.133 12.8707C33.2812 11.0195 30.8191 10 28.2003 10C25.5814 10 23.1192 11.0195 21.2673 12.8708L12.8671 21.2683C9.04434 25.0898 9.04429 31.3078 12.867 35.1293C14.7188 36.9805 17.1809 38 19.7998 38C22.4187 38 24.8808 36.9805 26.7327 35.1292L35.1329 26.7318C38.9557 22.9102 38.9557 16.6922 35.133 12.8707ZM34.3244 25.9236L25.9242 34.3211C24.2883 35.9564 22.1133 36.8571 19.7998 36.8571C17.4863 36.8571 15.3113 35.9565 13.6754 34.3212C10.5885 31.2353 10.324 26.3808 12.8806 22.9909C12.8255 23.1806 12.7748 23.3719 12.731 23.5654C12.3309 25.3346 12.4226 27.1778 12.996 28.8955C13.0759 29.1348 13.299 29.2862 13.5382 29.2862C13.5981 29.2862 13.6592 29.2767 13.7192 29.2566C14.0186 29.1568 14.1804 28.8331 14.0804 28.5337C13.0412 25.4208 13.805 22.052 16.0702 19.6961C15.9967 19.9348 15.9314 20.1765 15.876 20.4214C15.476 22.1906 15.5676 24.0337 16.1411 25.7515C16.2209 25.9909 16.4439 26.1422 16.6832 26.1422C16.7432 26.1422 16.8041 26.1327 16.8642 26.1126C17.1636 26.0128 17.3254 25.6891 17.2254 25.3897C16.1674 22.2204 16.9771 18.7851 19.3387 16.4244L19.3318 16.4218L22.0757 13.6789C23.7117 12.0436 25.8867 11.1429 28.2003 11.1429C30.5138 11.1429 32.6888 12.0435 34.3247 13.6788C37.7016 17.0547 37.7015 22.5477 34.3244 25.9236ZM33.1698 14.8331L33.1633 14.8268L33.1634 14.8267L33.1568 14.8205C31.7692 13.44 29.9278 12.6799 27.9695 12.6799C26.0051 12.6799 24.1582 13.4446 22.7691 14.8332C19.9017 17.6997 19.9017 22.3639 22.7691 25.2304C23.5528 26.0139 24.4823 26.5986 25.4964 26.9596C23.4127 26.8017 21.4753 25.9149 19.9822 24.4223C19.759 24.1993 19.3971 24.1992 19.1738 24.4223C18.9506 24.6454 18.9506 25.0073 19.1738 25.2305C21.0429 27.0991 23.5283 28.1282 26.1718 28.1281C28.7984 28.1281 31.2686 27.1117 33.1337 25.2656L33.1498 25.25L33.1498 25.25C33.1565 25.2435 33.1632 25.237 33.1698 25.2304L33.1699 25.2303C36.0373 22.3638 36.0373 17.6996 33.1698 14.8331ZM32.3614 24.4223C32.3296 24.4541 32.2974 24.4852 32.2652 24.5164L32.2503 24.5307C31.0907 25.6349 29.5767 26.2409 27.9695 26.2409C26.3105 26.2409 24.7507 25.5951 23.5776 24.4224C21.1559 22.0013 21.1559 18.0622 23.5776 15.6413C24.7507 14.4686 26.3104 13.8228 27.9695 13.8228C28.6221 13.8228 29.2591 13.9231 29.8635 14.1157C29.4553 14.2696 29.0808 14.5093 28.7631 14.8268C28.2713 15.3184 28.0006 15.972 28.0006 16.6672C28.0006 17.3624 28.2715 18.016 28.7632 18.5075C29.1714 18.9156 29.6842 19.1649 30.2074 19.2095C30.2646 19.2145 30.3215 19.2169 30.3779 19.2169C30.8846 19.2169 31.3564 19.0215 31.721 18.657C32.4759 17.9023 32.499 16.9501 31.78 16.2313C31.5567 16.0082 31.1949 16.0082 30.9715 16.2313C30.7484 16.4544 30.7484 16.8163 30.9715 17.0395C31.0934 17.1613 31.3469 17.4147 30.9126 17.849C30.7451 18.0164 30.5404 18.0912 30.3046 18.0708C30.0497 18.0491 29.7893 17.9172 29.5715 17.6995C29.0022 17.1303 29.0021 16.2041 29.5714 15.635C30.3369 14.8698 31.581 14.868 32.3489 15.6291L32.3615 15.6413C34.7831 18.0623 34.7831 22.0013 32.3614 24.4223ZM27.1646 18.7183C27.4795 18.6849 27.7597 18.9134 27.7926 19.2271C27.8254 19.5411 27.5975 19.8221 27.2836 19.855C27.2231 19.8614 27.1625 19.8645 27.1025 19.8645C26.6492 19.8645 26.2157 19.6865 25.8913 19.3622C25.524 18.9949 25.3443 18.4876 25.3984 17.9704C25.4313 17.6565 25.7118 17.4289 26.0264 17.4616C26.3404 17.4944 26.5683 17.7754 26.5354 18.0893C26.5173 18.2622 26.5772 18.4316 26.6997 18.554C26.8223 18.6766 26.992 18.7364 27.1646 18.7183ZM27.9183 23.3387C27.8855 23.0248 27.6044 22.7971 27.2904 22.8299C26.7076 22.8909 26.1372 22.689 25.7243 22.2763C25.3114 21.8635 25.1095 21.2928 25.1705 20.7107C25.2034 20.3968 24.9755 20.1157 24.6615 20.0829C24.3475 20.0499 24.0664 20.2779 24.0335 20.5917C23.9365 21.5182 24.2582 22.4268 24.916 23.0844C25.4968 23.665 26.2731 23.9835 27.0847 23.9835C27.1924 23.9835 27.3009 23.9779 27.4093 23.9665C27.7233 23.9337 27.9512 23.6526 27.9183 23.3387ZM17.9612 27.0151L17.9577 27.0092C17.7985 26.737 17.4501 26.6475 17.1777 26.8062C16.9052 26.965 16.8142 27.3166 16.9726 27.5891L16.976 27.595C17.082 27.7762 17.2717 27.8764 17.4671 27.8764C17.5653 27.8764 17.6649 27.8511 17.7561 27.798C18.0286 27.6392 18.1195 27.2877 17.9612 27.0151ZM30.5406 21.9742C30.5078 21.6604 30.2267 21.4324 29.9126 21.4654C29.7396 21.4834 29.5703 21.4236 29.4477 21.301C29.3252 21.1786 29.2653 21.0092 29.2834 20.8364C29.3163 20.5225 29.0884 20.2414 28.7744 20.2086C28.4595 20.1757 28.1793 20.4036 28.1465 20.7174C28.0923 21.2347 28.272 21.742 28.6393 22.1091C28.9637 22.4335 29.3972 22.6115 29.8505 22.6115C29.9105 22.6115 29.971 22.6084 30.0316 22.602C30.3456 22.5692 30.5735 22.2881 30.5406 21.9742ZM14.8218 30.1691L14.8102 30.1491C14.6486 29.8781 14.2969 29.7882 14.0259 29.9498C13.7547 30.1114 13.6653 30.461 13.827 30.732C13.9322 30.9178 14.1257 31.0221 14.3249 31.0221C14.4203 31.0221 14.5171 30.9981 14.606 30.9479C14.8807 30.7925 14.9773 30.4438 14.8218 30.1691Z" fill="#008CA3"/>
</svg>
