<svg width="40" height="40" viewBox="0 0 40 40" fill="none" xmlns="http://www.w3.org/2000/svg">
<circle cx="20" cy="20" r="20" fill="#F5FDFF"/>
<path fill-rule="evenodd" clip-rule="evenodd" d="M11.6944 9.36171C12.3232 8.49633 13.2717 8 14.2968 8H18.6074L22.6301 10.777L22.6382 10.7827C23.4385 11.3531 23.9163 12.3076 23.9163 13.3358C23.9163 14.0429 23.6915 14.6947 23.3143 15.2141C23.9209 15.3725 24.5086 15.6125 25.06 15.929L25.2727 16.0512C27.5142 17.3384 28.9418 19.7981 28.9981 22.4702C28.9994 22.5281 29 22.5859 29 22.6439C29 24.8458 28.1142 26.9442 26.5698 28.4011L26.5087 28.4586C25.6855 29.2351 24.7152 29.7928 23.6743 30.1009V32H22.3489V30.3528C22.1527 30.3701 21.9553 30.3793 21.7571 30.3793H20.3487V28.9625H21.7571C23.185 28.9625 24.5611 28.4062 25.6319 27.3962L25.6929 27.3386C26.9523 26.1506 27.6747 24.4394 27.6747 22.6439C27.6747 22.5967 27.6742 22.5497 27.6731 22.5024C27.6636 22.0488 27.6044 21.6028 27.5009 21.1712L16.3737 23.9829C16.1865 24.0302 15.9974 24.0536 15.8094 24.0536C15.3728 24.0536 14.9426 23.9275 14.5594 23.682C14.1887 23.4444 13.8898 23.1124 13.6843 22.7183L13.2192 23.7051C12.1066 26.065 12.181 28.84 13.4181 31.1279L12.2706 31.837C10.8091 29.1339 10.7213 25.8555 12.0356 23.0674L13.1092 20.79L12.591 18.6205L11.7195 15.1009L11.7485 15.0927L11.104 12.3943C10.8504 11.3324 11.0656 10.2271 11.6944 9.36171ZM25.9142 18.2843L24.4182 18.6123L25.2687 20.2793L27.0169 19.8376C26.7314 19.2644 26.3593 18.7393 25.9142 18.2843ZM16.0689 22.6039C15.4776 22.7535 14.8926 22.3785 14.7371 21.7505L13.8729 18.2604L12.3882 12.0437C12.2366 11.4089 12.3652 10.7482 12.7411 10.2309C13.117 9.71356 13.684 9.41687 14.2968 9.41687H18.2167L21.9066 11.9642C22.3352 12.2716 22.591 12.7839 22.591 13.3358C22.591 14.2466 21.8979 14.9875 21.046 14.9875H20.3487V16.4044H21.5591C22.5515 16.4044 23.5382 16.6681 24.414 17.1669L17.2135 18.7459L15.806 12.4263L14.5167 12.7545L16.2216 20.4098L23.0604 18.9101L23.9314 20.6172L16.0689 22.6039Z" fill="#008CA3"/>
</svg>
