<svg width="32" height="33" viewBox="0 0 32 33" fill="none" xmlns="http://www.w3.org/2000/svg">
<path d="M3.06863 1.04862C4.76863 0.0971019 6.93642 -0.125848 9.00866 0.399677C10.0179 0.654477 10.8798 1.30939 11.3974 2.21115L13.185 5.32846C13.8221 6.43982 14.0061 7.75406 13.6988 8.99767C13.3914 10.2413 12.6163 11.3185 11.5348 12.005L9.96217 13.0043C9.31123 13.4164 9.07236 14.0474 9.22166 14.547C9.75514 16.3346 10.9356 18.3173 12.2335 19.6749C12.6197 20.081 13.3283 20.1765 14.0211 19.7724L14.891 19.2648C15.4618 18.9321 16.0931 18.7164 16.7481 18.6303C17.4032 18.5441 18.0688 18.5893 18.7062 18.7631C19.3436 18.9369 19.9401 19.2359 20.4607 19.6426C20.9813 20.0493 21.4158 20.5556 21.7387 21.132L23.3412 23.9886C23.8647 24.9242 23.9503 26.0409 23.58 27.0462C22.8415 29.0428 21.4182 30.6532 19.6685 31.4594C17.8908 32.2775 15.8106 32.2437 13.9275 30.9876C10.9455 29.001 7.35246 25.6567 4.09779 20.079C0.801311 14.4256 -0.028779 9.61428 0.0647803 6.02717C0.124499 3.73198 1.33878 2.01606 3.06863 1.04862V1.04862ZM21.3665 0.292183C21.1357 0.163892 20.8635 0.132506 20.6097 0.204929C20.3558 0.277352 20.1411 0.447652 20.0128 0.678365C19.8845 0.909077 19.8532 1.1813 19.9256 1.43516C19.998 1.68901 20.1683 1.9037 20.399 2.03199L21.1634 2.45798C23.5514 3.78455 25.5827 5.66956 27.0837 7.95192C28.5847 10.2343 29.5108 12.8461 29.7828 15.5643L29.8465 16.1913C29.854 16.3255 29.8887 16.4568 29.9483 16.5773C30.0079 16.6977 30.0914 16.8049 30.1935 16.8922C30.2957 16.9796 30.4145 17.0453 30.5428 17.0855C30.6711 17.1257 30.8062 17.1394 30.9399 17.126C31.0737 17.1125 31.2033 17.0721 31.321 17.0072C31.4387 16.9423 31.542 16.8542 31.6248 16.7482C31.7075 16.6423 31.7679 16.5207 31.8023 16.3908C31.8368 16.2608 31.8446 16.1253 31.8252 15.9922L31.7635 15.3672C31.4598 12.3287 30.4247 9.40891 28.7469 6.8575C27.0691 4.3061 24.7984 2.19894 22.1289 0.716187L21.3665 0.292183V0.292183ZM19.0334 5.62706C19.1694 5.40087 19.3897 5.23794 19.6457 5.17411C19.9018 5.11027 20.1728 5.15076 20.399 5.28666L20.6459 5.43397C22.2527 6.39734 23.6311 7.69815 24.6859 9.2465C25.7407 10.7948 26.4467 12.5538 26.7551 14.4017L26.8427 14.9332C26.8685 15.0639 26.8678 15.1985 26.8406 15.3289C26.8135 15.4594 26.7604 15.583 26.6846 15.6926C26.6087 15.8021 26.5117 15.8953 26.3992 15.9666C26.2866 16.038 26.1609 16.086 26.0295 16.1079C25.8981 16.1297 25.7636 16.125 25.6341 16.0939C25.5045 16.0628 25.3825 16.0061 25.2753 15.927C25.1681 15.8479 25.0778 15.748 25.0099 15.6334C24.942 15.5188 24.8978 15.3917 24.8799 15.2597L24.7903 14.7302C24.5301 13.1665 23.9335 11.6779 23.0416 10.3674C22.1497 9.05691 20.9839 7.95571 19.6247 7.13993L19.3778 6.99263C19.2657 6.92546 19.1678 6.83686 19.0899 6.73187C19.012 6.62689 18.9555 6.50758 18.9237 6.38077C18.8919 6.25396 18.8854 6.12213 18.9046 5.9928C18.9238 5.86348 18.9682 5.7392 19.0354 5.62706H19.0334Z" fill="#008CA3"/>
</svg>
